<svg width="40" height="40" viewBox="0 0 40 40" fill="none" xmlns="http://www.w3.org/2000/svg">
<path fill-rule="evenodd" clip-rule="evenodd" d="M17.6423 3.49992C18.2323 2.91071 19.0217 2.56401 19.8547 2.52822C20.6878 2.49243 21.504 2.77015 22.1423 3.30659L22.3556 3.50159L25.5223 6.66659H29.999C30.8396 6.66674 31.6492 6.98454 32.2655 7.55632C32.8818 8.12809 33.2593 8.91162 33.3223 9.74992L33.3323 9.99992V14.4766L36.499 17.6433C37.0886 18.2333 37.4356 19.023 37.4714 19.8565C37.5072 20.6899 37.2292 21.5065 36.6923 22.1449L36.4973 22.3566L33.3306 25.5233V29.9999C33.3309 30.8409 33.0133 31.6509 32.4415 32.2675C31.8697 32.8841 31.0859 33.2619 30.2473 33.3249L29.999 33.3333H25.524L22.3573 36.4999C21.7672 37.0896 20.9775 37.4366 20.1441 37.4724C19.3107 37.5082 18.4941 37.2302 17.8556 36.6933L17.644 36.4999L14.4773 33.3333H9.99897C9.15801 33.3335 8.34803 33.0159 7.73139 32.4441C7.11476 31.8723 6.73705 31.0885 6.67397 30.2499L6.66564 29.9999V25.5233L3.49897 22.3566C2.9093 21.7665 2.5623 20.9768 2.52651 20.1434C2.49072 19.3099 2.76873 18.4934 3.30564 17.8549L3.49897 17.6433L6.66564 14.4766V9.99992C6.66579 9.15925 6.98359 8.34968 7.55537 7.7334C8.12714 7.11712 8.91067 6.73964 9.74897 6.67659L9.99897 6.66659H14.4756L17.6423 3.49992Z" fill="#018FDF"/>
<path fill-rule="evenodd" clip-rule="evenodd" d="M25.131 14.9718L18.0576 22.0451L15.111 19.0984C14.7982 18.7859 14.3742 18.6104 13.932 18.6106C13.4899 18.6107 13.066 18.7865 12.7535 19.0993C12.4409 19.412 12.2655 19.8361 12.2656 20.2782C12.2658 20.7203 12.4416 21.1442 12.7543 21.4568L16.761 25.4634C16.9312 25.6338 17.1334 25.7689 17.3558 25.8611C17.5783 25.9533 17.8168 26.0007 18.0576 26.0007C18.2985 26.0007 18.5369 25.9533 18.7594 25.8611C18.9819 25.7689 19.184 25.6338 19.3543 25.4634L27.4876 17.3284C27.7912 17.0141 27.9592 16.5931 27.9554 16.1561C27.9516 15.7191 27.7763 15.3011 27.4673 14.9921C27.1583 14.683 26.7403 14.5078 26.3033 14.504C25.8663 14.5002 25.4453 14.6682 25.131 14.9718Z" fill="white"/>
</svg>
