<svg width="32" height="32" viewBox="0 0 32 32" fill="none" xmlns="http://www.w3.org/2000/svg">
<path fill-rule="evenodd" clip-rule="evenodd" d="M23.0659 13.9369L25.6356 14.3569C25.8461 14.3913 26.0004 14.5731 26 14.7861V17.1773C26 17.3883 25.8487 17.5691 25.6404 17.6056L23.0672 18.0573C22.918 18.5731 22.7132 19.0696 22.4553 19.5391L23.9764 21.6509C24.1012 21.8239 24.0816 22.0617 23.9311 22.2127L22.2405 23.9044C22.0909 24.0535 21.8561 24.0748 21.6831 23.9527L19.5503 22.4565C19.0799 22.7183 18.5803 22.9269 18.0589 23.0804L17.6045 25.6413C17.568 25.8487 17.3875 26 17.1767 26H14.7851C14.5725 26 14.3912 25.8465 14.3568 25.6373L13.9324 23.0891C13.412 22.9387 12.9097 22.7313 12.4345 22.47L10.3169 23.9531C10.1443 24.0744 9.90904 24.0535 9.75989 23.9044L8.06931 22.2127C7.91929 22.0617 7.89973 21.8248 8.02321 21.6521L9.51944 19.5596C9.25551 19.0821 9.04592 18.5783 8.89416 18.0552L6.35873 17.6056C6.15132 17.5687 6 17.3883 6 17.1773V14.7861C6 14.5739 6.15392 14.3921 6.36351 14.3573L8.89895 13.9352C9.05157 13.4109 9.26115 12.907 9.52421 12.4309L8.04627 10.3165C7.92495 10.1439 7.94583 9.90913 8.09496 9.76L9.78511 8.07C9.936 7.92 10.1721 7.9 10.3456 8.02391L12.4458 9.52391C12.9176 9.26565 13.4185 9.06 13.9403 8.91L14.356 6.36479C14.3903 6.15435 14.572 6 14.7851 6H17.1767C17.388 6 17.5684 6.15217 17.6049 6.36L18.0532 8.91913C18.572 9.07 19.072 9.27783 19.5455 9.53956L21.6513 8.02609C21.8244 7.90131 22.0619 7.92087 22.2127 8.07131L23.9037 9.76131C24.0529 9.91087 24.0737 10.1461 23.9524 10.3187L22.4523 12.4565C22.7097 12.9257 22.9153 13.4213 23.0659 13.9369ZM12.9563 16C12.9563 17.6809 14.3191 19.0435 16.0001 19.0435C17.6811 19.0435 19.0439 17.6809 19.0439 16C19.0439 14.3192 17.6811 12.9566 16.0001 12.9566C14.3191 12.9566 12.9563 14.3192 12.9563 16Z" stroke="black" stroke-width="1.33333"/>
</svg>
