<svg width="40" height="40" viewBox="0 0 40 40" fill="none" xmlns="http://www.w3.org/2000/svg">
<circle cx="20" cy="20" r="19.4444" stroke="black" stroke-width="1.11111"/>
<path d="M12.5928 22.963C12.5928 20.8682 12.5928 19.82 13.2439 19.1697C13.8943 18.5186 14.9424 18.5186 17.0372 18.5186H22.9631C25.058 18.5186 26.1061 18.5186 26.7565 19.1697C27.4076 19.82 27.4076 20.8682 27.4076 22.963C27.4076 25.0578 27.4076 26.106 26.7565 26.7563C26.1061 27.4074 25.058 27.4074 22.9631 27.4074H17.0372C14.9424 27.4074 13.8943 27.4074 13.2439 26.7563C12.5928 26.106 12.5928 25.0578 12.5928 22.963Z" stroke="black" stroke-width="1.11111"/>
<path d="M20 24.4444C20.8182 24.4444 21.4815 23.7811 21.4815 22.9629C21.4815 22.1447 20.8182 21.4814 20 21.4814C19.1818 21.4814 18.5186 22.1447 18.5186 22.9629C18.5186 23.7811 19.1818 24.4444 20 24.4444Z" stroke="black" stroke-width="1.11111"/>
<path d="M15.5557 18.5187V17.0372C15.5557 15.8585 16.0239 14.728 16.8574 13.8945C17.6909 13.061 18.8214 12.5928 20.0001 12.5928C21.1788 12.5928 22.3093 13.061 23.1428 13.8945C23.9763 14.728 24.4446 15.8585 24.4446 17.0372V18.5187" stroke="black" stroke-width="1.11111" stroke-linecap="round"/>
</svg>
