<svg width="40" height="40" viewBox="0 0 40 40" fill="none" xmlns="http://www.w3.org/2000/svg">
<path d="M20.0002 19.9998C21.7683 19.9998 23.464 19.2975 24.7142 18.0472C25.9645 16.797 26.6668 15.1013 26.6668 13.3332C26.6668 11.5651 25.9645 9.86937 24.7142 8.61913C23.464 7.36888 21.7683 6.6665 20.0002 6.6665C18.2321 6.6665 16.5364 7.36888 15.2861 8.61913C14.0359 9.86937 13.3335 11.5651 13.3335 13.3332C13.3335 15.1013 14.0359 16.797 15.2861 18.0472C16.5364 19.2975 18.2321 19.9998 20.0002 19.9998Z" stroke="black" stroke-width="1.5" stroke-linecap="round" stroke-linejoin="round"/>
<path d="M36.6671 28.8C36.6669 29.8028 36.2703 30.765 35.5637 31.4767C33.9371 33.1167 32.3587 34.8267 30.6704 36.4067C30.4818 36.5789 30.2342 36.672 29.9789 36.6667C29.7236 36.6614 29.4801 36.5582 29.2987 36.3783L24.4354 31.4783C23.7281 30.7664 23.3311 29.8036 23.3311 28.8C23.3311 27.7964 23.7281 26.8336 24.4354 26.1217C24.7882 25.766 25.2079 25.4838 25.6703 25.2912C26.1327 25.0986 26.6287 24.9994 27.1296 24.9994C27.6305 24.9994 28.1265 25.0986 28.5889 25.2912C29.0513 25.4838 29.471 25.766 29.8237 26.1217L30.0004 26.3L30.1771 26.1217C30.7069 25.5873 31.3836 25.2224 32.1213 25.0735C32.8589 24.9247 33.6242 24.9985 34.3198 25.2855C35.0154 25.5726 35.61 26.06 36.0279 26.6858C36.4459 27.3116 36.6684 28.0475 36.6671 28.8Z" stroke="black" stroke-width="1.5" stroke-linejoin="round"/>
<path d="M8.3335 33.3333V31.6666C8.33309 29.6983 8.83072 27.7618 9.78006 26.0375C10.7294 24.3131 12.0996 22.8571 13.7631 21.8047C15.4265 20.7524 17.3292 20.1381 19.294 20.019C21.2587 19.8998 23.2217 20.2797 25.0002 21.1233" stroke="black" stroke-width="1.5" stroke-linecap="round" stroke-linejoin="round"/>
</svg>
