<svg width="22" height="22" viewBox="0 0 22 22" fill="none" xmlns="http://www.w3.org/2000/svg">
<path d="M20.4096 2.22578C20.1486 2.00868 19.8337 1.8664 19.4982 1.8141C19.1628 1.7618 18.8195 1.80143 18.5048 1.92878L2.0772 8.56086C1.72598 8.70542 1.42702 8.95335 1.21997 9.27176C1.01293 9.59016 0.907589 9.964 0.917931 10.3437C0.928273 10.7233 1.05381 11.0909 1.27788 11.3975C1.50195 11.7042 1.81397 11.9355 2.17253 12.0607L5.49545 13.2166L7.34712 19.3418C7.3725 19.4235 7.40921 19.5013 7.4562 19.5728C7.46353 19.5838 7.47362 19.5911 7.48095 19.6031C7.53497 19.6782 7.6002 19.7447 7.67437 19.8001C7.69507 19.8164 7.71648 19.8316 7.73853 19.846C7.82536 19.9036 7.9215 19.9458 8.0227 19.9706L8.03462 19.9716L8.04012 19.9743C8.10138 19.9866 8.16372 19.9927 8.2262 19.9926L8.2427 19.9899C8.33658 19.9883 8.42965 19.9722 8.51862 19.9422C8.5397 19.9349 8.55712 19.9239 8.57728 19.9147C8.64383 19.8874 8.70691 19.8524 8.7652 19.8102C8.81163 19.7708 8.85807 19.7314 8.90453 19.692L11.3814 16.9576L15.0755 19.8194C15.4007 20.0727 15.801 20.2104 16.2131 20.2108C16.6451 20.2103 17.0637 20.0613 17.3989 19.7887C17.734 19.5162 17.9652 19.1367 18.0538 18.7139L21.0449 4.03162C21.1125 3.7013 21.0891 3.35881 20.9773 3.04075C20.8654 2.72268 20.6692 2.44099 20.4096 2.22578ZM8.5892 13.5081C8.46225 13.6348 8.37551 13.7962 8.33987 13.972L8.0557 15.3506L7.33703 12.9737L11.0633 11.0331L8.5892 13.5081ZM16.1994 18.3701L11.8333 14.9876C11.6506 14.8467 11.4215 14.7797 11.1916 14.8001C10.9618 14.8205 10.7481 14.9267 10.593 15.0976L9.7992 15.9731L10.0797 14.61L16.5724 8.1172C16.7265 7.9622 16.8201 7.75727 16.8364 7.53935C16.8527 7.32143 16.7906 7.10486 16.6613 6.92867C16.532 6.75249 16.3441 6.62829 16.1313 6.57847C15.9185 6.52865 15.6949 6.55648 15.5009 6.65695L6.18295 11.508L2.76837 10.2586L19.2491 3.66678L16.1994 18.3701Z" fill="#0A0A0A"/>
</svg>
