<svg width="45" height="44" viewBox="0 0 45 44" fill="none" xmlns="http://www.w3.org/2000/svg">
<circle cx="22.8887" cy="22" r="22" fill="black" fill-opacity="0.46"/>
<path d="M22.2781 21.8981C23.3918 21.8981 24.2133 21.0776 24.2133 19.963C24.2133 18.8483 23.3918 18.0278 22.2781 18.0278C21.1654 18.0278 20.3429 18.8483 20.3429 19.963C20.3429 21.0776 21.1654 21.8981 22.2781 21.8981ZM22.2781 22.8657C20.1407 22.8657 18.4077 24.4255 18.4077 26.3491V26.7226H26.1485V26.3491C26.1485 24.4255 24.4155 22.8657 22.2781 22.8657Z" fill="white"/>
<path d="M29.0508 14.1574H15.5045C14.4373 14.1574 13.5693 15.0253 13.5693 16.0926V28.6713C13.5693 29.7386 14.4373 30.6065 15.5045 30.6065H19.3749L22.2777 33.5093L25.1804 30.6065H29.0508C30.1181 30.6065 30.986 29.7386 30.986 28.6713V16.0926C30.986 15.0253 30.1181 14.1574 29.0508 14.1574ZM24.2129 28.6713L22.2777 30.6065L20.3425 28.6713H15.5045V16.0926H29.0508L29.0528 28.6713H24.2129Z" fill="white"/>
</svg>
