<svg width="20" height="20" viewBox="0 0 20 20" fill="none" xmlns="http://www.w3.org/2000/svg">
<path d="M14.5469 4H5.17188C4.86107 4 4.563 4.12347 4.34323 4.34323C4.12347 4.563 4 4.86107 4 5.17188V14.5469C4 14.8577 4.12347 15.1557 4.34323 15.3755C4.563 15.5953 4.86107 15.7188 5.17188 15.7188H14.5469C14.8577 15.7188 15.1557 15.5953 15.3755 15.3755C15.5953 15.1557 15.7188 14.8577 15.7188 14.5469V5.17188C15.7188 4.86107 15.5953 4.563 15.3755 4.34323C15.1557 4.12347 14.8577 4 14.5469 4ZM14.3125 14.3125H5.40625V5.40625H14.3125V14.3125ZM6.8125 9.85938C6.8125 9.67289 6.88658 9.49405 7.01844 9.36219C7.1503 9.23033 7.32914 9.15625 7.51562 9.15625H9.15625V7.51562C9.15625 7.32914 9.23033 7.1503 9.36219 7.01844C9.49405 6.88658 9.67289 6.8125 9.85938 6.8125C10.0459 6.8125 10.2247 6.88658 10.3566 7.01844C10.4884 7.1503 10.5625 7.32914 10.5625 7.51562V9.15625H12.2031C12.3896 9.15625 12.5684 9.23033 12.7003 9.36219C12.8322 9.49405 12.9062 9.67289 12.9062 9.85938C12.9062 10.0459 12.8322 10.2247 12.7003 10.3566C12.5684 10.4884 12.3896 10.5625 12.2031 10.5625H10.5625V12.2031C10.5625 12.3896 10.4884 12.5684 10.3566 12.7003C10.2247 12.8322 10.0459 12.9062 9.85938 12.9062C9.67289 12.9062 9.49405 12.8322 9.36219 12.7003C9.23033 12.5684 9.15625 12.3896 9.15625 12.2031V10.5625H7.51562C7.32914 10.5625 7.1503 10.4884 7.01844 10.3566C6.88658 10.2247 6.8125 10.0459 6.8125 9.85938Z" fill="#383838"/>
</svg>
