<svg width="18" height="18" viewBox="0 0 18 18" fill="none" xmlns="http://www.w3.org/2000/svg">
<path fill-rule="evenodd" clip-rule="evenodd" d="M9.08413 6.24526C8.33124 6.24526 7.60919 6.54434 7.07682 7.07671C6.54444 7.60908 6.24536 8.33114 6.24536 9.08402C6.24536 9.83691 6.54444 10.559 7.07682 11.0913C7.60919 11.6237 8.33124 11.9228 9.08413 11.9228C9.83701 11.9228 10.5591 11.6237 11.0914 11.0913C11.6238 10.559 11.9229 9.83691 11.9229 9.08402C11.9229 8.33114 11.6238 7.60908 11.0914 7.07671C10.5591 6.54434 9.83701 6.24526 9.08413 6.24526ZM7.38087 9.08402C7.38087 8.63229 7.56032 8.19906 7.87974 7.87964C8.19916 7.56021 8.63239 7.38076 9.08413 7.38076C9.53586 7.38076 9.96909 7.56021 10.2885 7.87964C10.6079 8.19906 10.7874 8.63229 10.7874 9.08402C10.7874 9.53576 10.6079 9.96899 10.2885 10.2884C9.96909 10.6078 9.53586 10.7873 9.08413 10.7873C8.63239 10.7873 8.19916 10.6078 7.87974 10.2884C7.56032 9.96899 7.38087 9.53576 7.38087 9.08402Z" fill="#949494"/>
<path fill-rule="evenodd" clip-rule="evenodd" d="M9.08408 2.46025C5.66697 2.46025 3.36492 4.50719 2.0288 6.243L2.00534 6.27403C1.70254 6.66692 1.42472 7.02801 1.23622 7.45496C1.0341 7.91295 0.946289 8.41181 0.946289 9.08403C0.946289 9.75625 1.0341 10.2551 1.23622 10.7131C1.42547 11.1401 1.70329 11.5019 2.00534 11.894L2.02956 11.9251C3.36492 13.6609 5.66697 15.7078 9.08408 15.7078C12.5012 15.7078 14.8032 13.6609 16.1394 11.9251L16.1628 11.894C16.4656 11.5019 16.7434 11.1401 16.9319 10.7131C17.1341 10.2551 17.2219 9.75625 17.2219 9.08403C17.2219 8.41181 17.1341 7.91295 16.9319 7.45496C16.7427 7.02801 16.4649 6.66692 16.1628 6.27403L16.1386 6.243C14.8032 4.50719 12.5012 2.46025 9.08408 2.46025ZM2.92964 6.93565C4.16204 5.33308 6.16962 3.59575 9.08408 3.59575C11.9985 3.59575 14.0054 5.33308 15.2385 6.93565C15.5716 7.36715 15.7654 7.62453 15.8933 7.9137C16.0129 8.18471 16.0864 8.51552 16.0864 9.08403C16.0864 9.65254 16.0129 9.98335 15.8933 10.2544C15.7654 10.5435 15.5708 10.8009 15.2393 11.2324C14.0046 12.835 11.9985 14.5723 9.08408 14.5723C6.16962 14.5723 4.1628 12.835 2.92964 11.2324C2.59656 10.8009 2.40276 10.5435 2.27483 10.2544C2.15522 9.98335 2.08179 9.65254 2.08179 9.08403C2.08179 8.51552 2.15522 8.18471 2.27483 7.9137C2.40276 7.62453 2.59807 7.36715 2.92964 6.93565Z" fill="#949494"/>
</svg>
