<svg width="45" height="44" viewBox="0 0 45 44" fill="none" xmlns="http://www.w3.org/2000/svg">
<circle cx="22.4443" cy="22" r="22" fill="black" fill-opacity="0.46"/>
<path d="M20.1017 20.0139C20.1017 20.2435 20.0105 20.4637 19.8481 20.6261C19.6858 20.7884 19.4656 20.8796 19.236 20.8796C19.0064 20.8796 18.7862 20.7884 18.6238 20.6261C18.4614 20.4637 18.3702 20.2435 18.3702 20.0139C18.3702 19.7843 18.4614 19.5641 18.6238 19.4017C18.7862 19.2394 19.0064 19.1481 19.236 19.1481C19.4656 19.1481 19.6858 19.2394 19.8481 19.4017C20.0105 19.5641 20.1017 19.7843 20.1017 20.0139ZM24.4304 20.8796C24.66 20.8796 24.8802 20.7884 25.0426 20.6261C25.2049 20.4637 25.2962 20.2435 25.2962 20.0139C25.2962 19.7843 25.2049 19.5641 25.0426 19.4017C24.8802 19.2394 24.66 19.1481 24.4304 19.1481C24.2008 19.1481 23.9806 19.2394 23.8182 19.4017C23.6559 19.5641 23.5647 19.7843 23.5647 20.0139C23.5647 20.2435 23.6559 20.4637 23.8182 20.6261C23.9806 20.7884 24.2008 20.8796 24.4304 20.8796ZM13.1758 17.4167C13.1758 16.4982 13.5406 15.6174 14.1901 14.968C14.8395 14.3186 15.7203 13.9537 16.6387 13.9537H27.0276C27.9461 13.9537 28.8269 14.3186 29.4763 14.968C30.1257 15.6174 30.4906 16.4982 30.4906 17.4167V25.2083C30.4908 25.3221 30.4686 25.4348 30.4252 25.54C30.3818 25.6451 30.3181 25.7407 30.2378 25.8213L25.0434 31.0157C24.9628 31.0961 24.8672 31.1597 24.762 31.2031C24.6569 31.2465 24.5442 31.2687 24.4304 31.2685H16.6387C15.7203 31.2685 14.8395 30.9037 14.1901 30.2542C13.5406 29.6048 13.1758 28.724 13.1758 27.8056V17.4167ZM16.6387 15.6852C16.1795 15.6852 15.7391 15.8676 15.4144 16.1923C15.0897 16.517 14.9073 16.9575 14.9073 17.4167V27.8056C14.9073 28.2648 15.0897 28.7052 15.4144 29.0299C15.7391 29.3546 16.1795 29.537 16.6387 29.537H21.8332V26.0914H21.8263C20.6523 26.0914 19.797 25.4992 19.2723 24.9711C18.9625 24.659 18.6969 24.306 18.4828 23.9218L18.4689 23.8959L18.4655 23.8872L18.4637 23.8838L18.462 23.882C18.3635 23.6742 18.3516 23.4358 18.4289 23.2192C18.5061 23.0026 18.6663 22.8256 18.8741 22.7271C19.0819 22.6286 19.3203 22.6167 19.5369 22.694C19.7535 22.7713 19.9305 22.9314 20.029 23.1392C20.1589 23.361 20.3159 23.5658 20.4965 23.7487C20.8359 24.0881 21.2757 24.3599 21.8263 24.3599C21.9993 24.3601 22.1713 24.3321 22.3353 24.2768C22.9413 23.2777 24.0408 22.6111 25.2962 22.6111H28.7591V17.4167C28.7591 16.9575 28.5767 16.517 28.252 16.1923C27.9273 15.8676 27.4868 15.6852 27.0276 15.6852H16.6387ZM28.7591 24.3426H25.2962C24.8369 24.3426 24.3965 24.525 24.0718 24.8497C23.7471 25.1744 23.5647 25.6149 23.5647 26.0741V29.537H24.072L28.7591 24.8499V24.3426Z" fill="white"/>
</svg>
