<svg width="31" height="31" viewBox="0 0 31 31" fill="none" xmlns="http://www.w3.org/2000/svg">
<path d="M13 21.9292V18.9292C13 18.3987 13.2107 17.89 13.5858 17.515C13.9609 17.1399 14.4696 16.9292 15 16.9292C15.5304 16.9292 16.0391 17.1399 16.4142 17.515C16.7893 17.89 17 18.3987 17 18.9292V21.9292M5 11.9292L14.732 7.06318C14.8152 7.02163 14.907 7 15 7C15.093 7 15.1848 7.02163 15.268 7.06318L25 11.9292" stroke="black" stroke-width="1.5" stroke-linecap="round" stroke-linejoin="round"/>
<path d="M23 14.9292V22.9292C23 23.4596 22.7893 23.9683 22.4142 24.3434C22.0391 24.7185 21.5304 24.9292 21 24.9292H9C8.46957 24.9292 7.96086 24.7185 7.58579 24.3434C7.21071 23.9683 7 23.4596 7 22.9292V14.9292" stroke="black" stroke-width="1.5" stroke-linecap="round" stroke-linejoin="round"/>
</svg>
