<svg width="31" height="31" viewBox="0 0 31 31" fill="none" xmlns="http://www.w3.org/2000/svg">
<path d="M15.5 3.14844C13.0571 3.14844 10.669 3.87284 8.63784 5.23005C6.60664 6.58726 5.02351 8.51631 4.08865 10.7733C3.15379 13.0302 2.90919 15.5137 3.38577 17.9097C3.86236 20.3056 5.03873 22.5065 6.76613 24.2339C8.49353 25.9613 10.6944 27.1376 13.0903 27.6142C15.4863 28.0908 17.9698 27.8462 20.2267 26.9114C22.4837 25.9765 24.4127 24.3934 25.77 22.3622C27.1272 20.331 27.8516 17.9429 27.8516 15.5C27.8477 12.2253 26.5452 9.08591 24.2296 6.77037C21.9141 4.45484 18.7747 3.15228 15.5 3.14844ZM15.5 26.3984C13.3445 26.3984 11.2374 25.7593 9.44516 24.5617C7.65292 23.3642 6.25604 21.6621 5.43116 19.6707C4.60629 17.6792 4.39046 15.4879 4.81098 13.3738C5.2315 11.2597 6.26947 9.31781 7.79365 7.79364C9.31782 6.26947 11.2597 5.23149 13.3738 4.81097C15.4879 4.39045 17.6792 4.60628 19.6707 5.43116C21.6621 6.25603 23.3642 7.65291 24.5617 9.44515C25.7593 11.2374 26.3984 13.3445 26.3984 15.5C26.3952 18.3895 25.246 21.1597 23.2028 23.2028C21.1597 25.246 18.3895 26.3952 15.5 26.3984ZM21.0703 15.5C21.0703 15.6927 20.9938 15.8775 20.8575 16.0138C20.7213 16.15 20.5365 16.2266 20.3438 16.2266H16.2266V20.3438C16.2266 20.5364 16.15 20.7213 16.0138 20.8575C15.8775 20.9938 15.6927 21.0703 15.5 21.0703C15.3073 21.0703 15.1225 20.9938 14.9862 20.8575C14.85 20.7213 14.7734 20.5364 14.7734 20.3438V16.2266H10.6563C10.4636 16.2266 10.2788 16.15 10.1425 16.0138C10.0062 15.8775 9.92969 15.6927 9.92969 15.5C9.92969 15.3073 10.0062 15.1225 10.1425 14.9862C10.2788 14.85 10.4636 14.7734 10.6563 14.7734H14.7734V10.6562C14.7734 10.4636 14.85 10.2787 14.9862 10.1425C15.1225 10.0062 15.3073 9.92969 15.5 9.92969C15.6927 9.92969 15.8775 10.0062 16.0138 10.1425C16.15 10.2787 16.2266 10.4636 16.2266 10.6562V14.7734H20.3438C20.5365 14.7734 20.7213 14.85 20.8575 14.9862C20.9938 15.1225 21.0703 15.3073 21.0703 15.5Z" fill="black"/>
</svg>
