<svg width="23" height="23" viewBox="0 0 23 23" fill="none" xmlns="http://www.w3.org/2000/svg">
<path opacity="0.5" d="M16.2915 8.62691C18.3759 8.63841 19.5048 8.73137 20.2408 9.46737C21.0832 10.3097 21.0832 11.6648 21.0832 14.375V15.3333C21.0832 18.0445 21.0832 19.3995 20.2408 20.2419C19.3994 21.0833 18.0433 21.0833 15.3332 21.0833H7.6665C4.95634 21.0833 3.6003 21.0833 2.75888 20.2419C1.9165 19.3986 1.9165 18.0445 1.9165 15.3333V14.375C1.9165 11.6648 1.9165 10.3097 2.75888 9.46737C3.49488 8.73137 4.6238 8.63841 6.70817 8.62691" stroke="white" stroke-width="1.4375" stroke-linecap="round"/>
<path d="M11.5 14.375V1.91666M11.5 1.91666L14.375 5.27083M11.5 1.91666L8.625 5.27083" stroke="white" stroke-width="1.4375" stroke-linecap="round" stroke-linejoin="round"/>
</svg>
